<?xml version="1.0" encoding="utf-8"?>
<!-- Generator: Adobe Illustrator 25.0.0, SVG Export Plug-In . SVG Version: 6.00 Build 0)  -->
<svg version="1.1" id="Layer_1" xmlns="http://www.w3.org/2000/svg" xmlns:xlink="http://www.w3.org/1999/xlink" x="0px" y="0px"
	 viewBox="0 0 85.9 31" style="enable-background:new 0 0 85.9 31;" xml:space="preserve">
<style type="text/css">
	.st0{display:none;fill:#FFFFFF;}
	.st1{clip-path:url(#SVGID_2_);fill:#FFFFFF;}
	.st2{clip-path:url(#SVGID_2_);}
	.st3{clip-path:url(#SVGID_4_);fill:none;stroke:#000000;stroke-width:4.476447e-02;stroke-miterlimit:10;}
	.st4{clip-path:url(#SVGID_2_);fill:none;stroke:#000000;stroke-width:4.476447e-02;stroke-miterlimit:10;}
	.st5{font-family:'BaskervilleT-Medi';}
	.st6{font-size:16.0257px;}
	.st7{clip-path:url(#SVGID_6_);fill:none;stroke:#FFFFFF;stroke-width:4.476447e-02;stroke-miterlimit:10;}
	.st8{clip-path:url(#SVGID_8_);fill:none;stroke:#000000;stroke-width:4.476447e-02;stroke-miterlimit:10;}
	.st9{clip-path:url(#SVGID_10_);fill:none;stroke:#FFFFFF;stroke-width:4.476447e-02;stroke-miterlimit:10;}
	.st10{clip-path:url(#SVGID_12_);fill:none;stroke:#000000;stroke-width:4.476447e-02;stroke-miterlimit:10;}
	.st11{clip-path:url(#SVGID_14_);fill:none;stroke:#000000;stroke-width:4.476447e-02;stroke-miterlimit:10;}
	.st12{clip-path:url(#SVGID_16_);fill:none;stroke:#000000;stroke-width:4.476447e-02;stroke-miterlimit:10;}
	.st13{clip-path:url(#SVGID_18_);fill:none;stroke:#000000;stroke-width:4.476447e-02;stroke-miterlimit:10;}
	.st14{clip-path:url(#SVGID_20_);fill:none;stroke:#000000;stroke-width:4.476447e-02;stroke-miterlimit:10;}
	.st15{clip-path:url(#SVGID_22_);fill:none;stroke:#000000;stroke-width:4.476447e-02;stroke-miterlimit:10;}
	.st16{clip-path:url(#SVGID_24_);fill:none;stroke:#000000;stroke-width:4.476447e-02;stroke-miterlimit:10;}
	.st17{clip-path:url(#SVGID_26_);fill:none;stroke:#000000;stroke-width:4.476447e-02;stroke-miterlimit:10;}
	.st18{clip-path:url(#SVGID_28_);fill:none;stroke:#FFFFFF;stroke-width:4.476447e-02;stroke-miterlimit:10;}
	.st19{opacity:0.53;clip-path:url(#SVGID_30_);}
</style>
<path class="st0" d="M67.2,19.4l3.4-1.1c0.5,1,1.3,1.8,2.4,2.4c1,0.6,2.2,0.9,3.4,0.9c1.3,0,2.3-0.3,3.1-0.9
	c0.8-0.6,1.2-1.4,1.2-2.4c0-1.1-0.4-1.9-1.3-2.5c-0.8-0.6-2-1.2-3.6-1.7c-2.3-0.8-3.8-1.4-4.6-1.8c-2.1-1.2-3.1-2.9-3.1-5.2
	c0-1.9,0.8-3.5,2.3-4.6c1.5-1.2,3.5-1.8,5.9-1.8c2,0,3.7,0.5,5.1,1.4c1.4,0.9,2.5,2.1,3.1,3.5l-3.3,1.1C80,4.9,78.3,4,76.2,4
	c-1.3,0-2.3,0.3-3,0.8c-0.7,0.6-1.1,1.3-1.1,2.2c0,0.3,0,0.5,0.1,0.8c0.1,0.2,0.2,0.5,0.4,0.7c0.2,0.2,0.3,0.4,0.5,0.6
	c0.1,0.2,0.4,0.3,0.7,0.5c0.3,0.2,0.6,0.3,0.7,0.4c0.2,0.1,0.5,0.2,0.9,0.4s0.7,0.3,0.9,0.3c0.2,0.1,0.5,0.2,1.1,0.4
	c0.5,0.2,0.8,0.3,1,0.3c0.9,0.3,1.7,0.6,2.4,0.9c0.7,0.3,1.3,0.8,2,1.3c0.7,0.5,1.2,1.1,1.5,1.9c0.4,0.8,0.5,1.6,0.5,2.6
	c0,2.2-0.8,3.8-2.3,5s-3.5,1.8-6,1.8c-2.1,0-4-0.5-5.6-1.5C69.1,22.5,67.9,21.1,67.2,19.4z M86.1,10.7V7.5h2.6v-5h3.7v5h3.9v3.2
	h-3.9V19c0,0.8,0.2,1.4,0.5,1.7c0.3,0.4,0.8,0.5,1.5,0.5h1.9v3.2h-2.4c-3.5,0-5.2-1.7-5.2-5.2v-8.6h-2.6V10.7z M99.2,24.4V7.5h3.6
	v1.8c0.4-0.6,0.9-1.2,1.6-1.6c0.7-0.5,1.5-0.7,2.5-0.7c0.9,0,1.6,0.1,2.2,0.4v3.4c-0.7-0.2-1.5-0.4-2.2-0.4c-1.3,0-2.2,0.5-2.9,1.5
	c-0.7,1-1,2.3-1,3.9v8.6H99.2z M113.6,19.7c0,0.6,0.2,1.2,0.7,1.6s1.2,0.6,2,0.6c1.2,0,2.2-0.4,3-1.2c0.8-0.8,1.3-1.8,1.3-3.1V16
	c-0.9,0.2-2,0.4-3.3,0.6C114.8,17.1,113.6,18.1,113.6,19.7z M109.8,20c0-3.2,2.4-5.1,7.1-5.8c1.7-0.3,2.9-0.5,3.6-0.7v-0.9
	c0-0.8-0.3-1.5-0.9-1.9c-0.6-0.5-1.4-0.7-2.3-0.7c-1.9,0-3.5,0.8-4.8,2.3l-2.3-1.9c0.9-1,1.9-1.8,3.1-2.4c1.2-0.6,2.5-0.9,3.9-0.9
	c2.5,0,4.3,0.6,5.4,1.8s1.6,2.9,1.6,5.1v10.4h-3.6v-2.1c-0.4,0.7-1,1.3-1.8,1.9c-0.9,0.5-1.9,0.8-3,0.8c-1.9,0-3.3-0.5-4.4-1.4
	C110.3,22.6,109.8,21.4,109.8,20z M127.1,16c0-2.7,0.7-4.9,2.2-6.5c1.5-1.6,3.3-2.5,5.7-2.5c1.7,0,3.1,0.5,4.2,1.5
	c1.2,1,1.9,2.2,2.2,3.5l-3.2,0.9c-0.2-0.7-0.6-1.4-1.2-1.9c-0.6-0.5-1.2-0.8-2-0.8c-1.3,0-2.3,0.6-3,1.7s-1.1,2.5-1.1,4.2
	c0,1.8,0.4,3.3,1.1,4.3c0.8,1,1.7,1.5,2.9,1.5c0.9,0,1.6-0.3,2.3-0.9s1.1-1.3,1.4-2.1l3.2,0.9c-0.4,1.4-1.2,2.6-2.4,3.6
	c-1.2,1-2.7,1.6-4.4,1.6c-2.3,0-4.2-0.8-5.7-2.4C127.8,20.9,127.1,18.7,127.1,16z M142.8,10.7V7.5h2.6v-5h3.7v5h3.9v3.2h-3.9V19
	c0,0.8,0.2,1.4,0.5,1.7c0.3,0.4,0.8,0.5,1.5,0.5h1.9v3.2h-2.4c-3.5,0-5.2-1.7-5.2-5.2v-8.6h-2.6V10.7z"/>
<path class="st0" d="M29.9-5.6h13.6v20H29.9V-5.6z"/>
<path class="st0" d="M43.5-5.6h16.4v8H43.5V-5.6z"/>
<path class="st0" d="M46.3,5.4h13.6v19H46.3V5.4z"/>
<path class="st0" d="M29.9,16.8h16.4v7.6H29.9V16.8z"/>
<g>
	<g>
		<defs>
			<rect id="SVGID_1_" y="0" width="85.9" height="30.8"/>
		</defs>
		<clipPath id="SVGID_2_">
			<use xlink:href="#SVGID_1_"  style="overflow:visible;"/>
		</clipPath>
		<rect x="23.9" y="0" class="st1" width="23.4" height="2.5"/>
		<g class="st2">
			<defs>
				<rect id="SVGID_3_" y="0" width="85.9" height="30.8"/>
			</defs>
			<clipPath id="SVGID_4_">
				<use xlink:href="#SVGID_3_"  style="overflow:visible;"/>
			</clipPath>
			<rect x="23.9" y="0" class="st3" width="23.4" height="2.5"/>
		</g>
		<rect x="23.9" y="2.5" class="st1" width="23.4" height="2.5"/>
		<rect x="23.9" y="2.5" class="st4" width="23.4" height="2.5"/>
		<rect x="23.9" y="5" class="st1" width="23.4" height="3"/>
		<rect x="23.9" y="5" class="st4" width="23.4" height="3"/>
		<rect x="23.9" y="8.1" class="st1" width="23.4" height="2.7"/>
		<rect x="23.9" y="8.1" class="st4" width="23.4" height="2.7"/>
		<rect x="23.9" y="10.7" class="st1" width="23.4" height="3"/>
		<rect x="23.9" y="10.7" class="st4" width="23.4" height="3"/>
		<rect x="23.9" y="13.5" class="st1" width="23.4" height="2.8"/>
		<rect x="23.9" y="13.5" class="st4" width="23.4" height="2.8"/>
		<rect x="23.9" y="16.3" class="st1" width="23.4" height="3.1"/>
		<rect x="23.9" y="16.3" class="st4" width="23.4" height="3.1"/>
		<rect x="23.9" y="19.4" class="st1" width="23.4" height="2.5"/>
		<rect x="23.9" y="19.4" class="st4" width="23.4" height="2.5"/>
		<g class="st2">
			<text transform="matrix(1 0 0 1 30.7659 18.219)" class="st5 st6">P</text>
		</g>
		<g class="st2">
			<defs>
				<rect id="SVGID_5_" y="0" width="85.9" height="30.8"/>
			</defs>
			<clipPath id="SVGID_6_">
				<use xlink:href="#SVGID_5_"  style="overflow:visible;"/>
			</clipPath>
			<path class="st7" d="M35.1,8.3c0.3,0,0.5,0,0.7,0c0.7,0,1.1,0.1,1.4,0.3c0.3,0.2,0.5,0.4,0.7,0.8c0.2,0.3,0.2,0.7,0.2,1.1
				c0,0.3-0.1,0.7-0.2,1c-0.1,0.3-0.3,0.6-0.6,0.8c-0.3,0.2-0.9,0.3-1.6,0.3c-0.2,0-0.4,0-0.6,0V8.3z M35.9,13.4l0.9,0
				c1.5,0,2.6-0.5,3.2-1.4c0.3-0.5,0.5-1.1,0.5-1.8c0-0.8-0.3-1.4-0.8-1.9c-0.5-0.5-1.2-0.7-2.1-0.7h-6.2v0.8h0.4
				c0.6,0,1,0.1,1.1,0.5c0,0.1,0.1,0.4,0.1,0.7v6.8c0,0.3,0,0.5,0,0.5c0,0.2-0.1,0.3-0.2,0.4c-0.2,0.2-0.5,0.3-1,0.3h-0.4v0.8h5.4
				v-0.8h-0.4c-0.6,0-1-0.2-1.1-0.5c0-0.1-0.1-0.4-0.1-0.7v-2.9C35.2,13.3,35.5,13.3,35.9,13.4z"/>
		</g>
		<rect x="48" y="0" class="st1" width="23.4" height="2.5"/>
		<g class="st2">
			<defs>
				<rect id="SVGID_7_" y="0" width="85.9" height="30.8"/>
			</defs>
			<clipPath id="SVGID_8_">
				<use xlink:href="#SVGID_7_"  style="overflow:visible;"/>
			</clipPath>
			<rect x="48" y="0" class="st8" width="23.4" height="2.5"/>
		</g>
		<rect x="48" y="2.5" class="st1" width="23.4" height="2.5"/>
		<rect x="48" y="2.5" class="st4" width="23.4" height="2.5"/>
		<rect x="48" y="5" class="st1" width="23.4" height="3"/>
		<rect x="48" y="5" class="st4" width="23.4" height="3"/>
		<rect x="48" y="8.1" class="st1" width="23.4" height="2.7"/>
		<rect x="48" y="8.1" class="st4" width="23.4" height="2.7"/>
		<rect x="48" y="10.7" class="st1" width="23.4" height="3"/>
		<rect x="48" y="10.7" class="st4" width="23.4" height="3"/>
		<rect x="48" y="13.5" class="st1" width="23.4" height="2.8"/>
		<rect x="48" y="13.5" class="st4" width="23.4" height="2.8"/>
		<rect x="48" y="16.3" class="st1" width="23.4" height="3.1"/>
		<rect x="48" y="16.3" class="st4" width="23.4" height="3.1"/>
		<rect x="48" y="19.4" class="st1" width="23.4" height="2.5"/>
		<rect x="48" y="19.4" class="st4" width="23.4" height="2.5"/>
		<g class="st2">
			<text transform="matrix(1 0 0 1 54.9212 18.219)" class="st5 st6">S</text>
		</g>
		<g class="st2">
			<defs>
				<rect id="SVGID_9_" y="0" width="85.9" height="30.8"/>
			</defs>
			<clipPath id="SVGID_10_">
				<use xlink:href="#SVGID_9_"  style="overflow:visible;"/>
			</clipPath>
			<path class="st9" d="M62.2,7.4L61.9,8c-0.7-0.6-1.6-0.9-2.6-0.9c-1.1,0-1.9,0.3-2.5,1c-0.6,0.6-0.8,1.3-0.8,2.1
				c0,0.8,0.3,1.5,0.8,2c0.4,0.4,0.9,0.7,1.6,1c0.8,0.4,1.3,0.6,1.5,0.7c0.7,0.3,1.1,0.6,1.3,0.9c0.3,0.3,0.4,0.6,0.4,1
				c0,0.5-0.2,1-0.6,1.3c-0.3,0.3-0.8,0.4-1.3,0.4c-1,0-1.8-0.4-2.4-1.2c-0.3-0.4-0.5-0.9-0.7-1.6h-0.6l-0.1,3.6h0.8l0.3-0.8
				c0.4,0.3,0.7,0.5,0.9,0.6c0.6,0.3,1.2,0.5,2,0.5c1.3,0,2.3-0.5,3-1.4c0.5-0.6,0.7-1.3,0.7-2.1c0-1.1-0.4-2-1.3-2.6
				c-0.4-0.3-1-0.6-1.8-1c-0.7-0.3-1.3-0.6-1.6-0.9c-0.6-0.4-0.9-0.8-0.9-1.3c0-0.4,0.2-0.7,0.5-0.9c0.3-0.2,0.7-0.3,1.1-0.3
				c0.5,0,1,0.1,1.4,0.3c0.6,0.3,0.9,0.7,1.2,1.2c0.1,0.2,0.2,0.5,0.3,0.8h0.7V7.4H62.2z"/>
		</g>
		<rect x="69.8" y="16" transform="matrix(0.8693 -0.4942 0.4942 0.8693 1.5156 39.509)" class="st1" width="11.4" height="1.7"/>
		<rect x="69.8" y="16" transform="matrix(0.8693 -0.4942 0.4942 0.8693 1.5156 39.509)" class="st4" width="11.4" height="1.7"/>
		
			<rect x="70.6" y="17.5" transform="matrix(0.8693 -0.4942 0.4942 0.8693 0.8885 40.1237)" class="st1" width="11.4" height="1.7"/>
		
			<rect x="70.6" y="17.5" transform="matrix(0.8693 -0.4942 0.4942 0.8693 0.8885 40.1237)" class="st4" width="11.4" height="1.7"/>
		<rect x="71.6" y="19" transform="matrix(0.8693 -0.4942 0.4942 0.8693 0.1943 40.8044)" class="st1" width="11.4" height="2.1"/>
		<rect x="71.6" y="19" transform="matrix(0.8693 -0.4942 0.4942 0.8693 0.1943 40.8044)" class="st4" width="11.4" height="2.1"/>
		
			<rect x="72.5" y="20.8" transform="matrix(0.8693 -0.4942 0.4942 0.8693 -0.5224 41.5068)" class="st1" width="11.4" height="1.8"/>
		
			<rect x="72.5" y="20.8" transform="matrix(0.8693 -0.4942 0.4942 0.8693 -0.5224 41.5068)" class="st4" width="11.4" height="1.8"/>
		<rect x="73.5" y="22.4" transform="matrix(0.8693 -0.4942 0.4942 0.8693 -1.2054 42.1765)" class="st1" width="11.4" height="2"/>
		<rect x="73.5" y="22.4" transform="matrix(0.8693 -0.4942 0.4942 0.8693 -1.2054 42.1765)" class="st4" width="11.4" height="2"/>
		<rect x="74.4" y="24" transform="matrix(0.8693 -0.4942 0.4942 0.8693 -1.8941 42.8515)" class="st1" width="11.4" height="1.9"/>
		<rect x="74.4" y="24" transform="matrix(0.8693 -0.4942 0.4942 0.8693 -1.8941 42.8515)" class="st4" width="11.4" height="1.9"/>
		<rect x="69" y="18.3" transform="matrix(0.9483 -0.3175 0.3175 0.9483 -2.2083 24.706)" class="st1" width="11.4" height="1.7"/>
		<rect x="69" y="18.3" transform="matrix(0.9483 -0.3175 0.3175 0.9483 -2.2083 24.706)" class="st4" width="11.4" height="1.7"/>
		
			<rect x="69.6" y="19.9" transform="matrix(0.9483 -0.3175 0.3175 0.9483 -2.6972 24.9631)" class="st1" width="11.4" height="1.7"/>
		
			<rect x="69.6" y="19.9" transform="matrix(0.9483 -0.3175 0.3175 0.9483 -2.6972 24.9631)" class="st4" width="11.4" height="1.7"/>
		
			<rect x="70.2" y="21.5" transform="matrix(0.9483 -0.3175 0.3175 0.9483 -3.2384 25.2483)" class="st1" width="11.4" height="2.1"/>
		
			<rect x="70.2" y="21.5" transform="matrix(0.9483 -0.3175 0.3175 0.9483 -3.2384 25.2483)" class="st4" width="11.4" height="2.1"/>
		
			<rect x="70.8" y="23.5" transform="matrix(0.9483 -0.3175 0.3175 0.9483 -3.7972 25.5422)" class="st1" width="11.4" height="1.8"/>
		
			<rect x="70.8" y="23.5" transform="matrix(0.9483 -0.3175 0.3175 0.9483 -3.7972 25.5422)" class="st4" width="11.4" height="1.8"/>
		<rect x="71.4" y="25.2" transform="matrix(0.9483 -0.3175 0.3175 0.9483 -4.3297 25.8224)" class="st1" width="11.4" height="2"/>
		<rect x="71.4" y="25.2" transform="matrix(0.9483 -0.3175 0.3175 0.9483 -4.3297 25.8224)" class="st4" width="11.4" height="2"/>
		<rect x="72" y="27" transform="matrix(0.9483 -0.3175 0.3175 0.9483 -4.8665 26.1051)" class="st1" width="11.4" height="1.9"/>
		<rect x="72" y="27" transform="matrix(0.9483 -0.3175 0.3175 0.9483 -4.8665 26.1051)" class="st4" width="11.4" height="1.9"/>
		<rect y="0" class="st1" width="23.4" height="2.5"/>
		<g class="st2">
			<defs>
				<rect id="SVGID_11_" y="0" width="85.9" height="30.8"/>
			</defs>
			<clipPath id="SVGID_12_">
				<use xlink:href="#SVGID_11_"  style="overflow:visible;"/>
			</clipPath>
			<rect y="0" class="st10" width="23.4" height="2.5"/>
		</g>
		<rect y="2.5" class="st1" width="23.4" height="2.5"/>
		<g class="st2">
			<defs>
				<rect id="SVGID_13_" y="0" width="85.9" height="30.8"/>
			</defs>
			<clipPath id="SVGID_14_">
				<use xlink:href="#SVGID_13_"  style="overflow:visible;"/>
			</clipPath>
			<rect y="2.5" class="st11" width="23.4" height="2.5"/>
		</g>
		<rect y="5" class="st1" width="23.4" height="3"/>
		<g class="st2">
			<defs>
				<rect id="SVGID_15_" y="0" width="85.9" height="30.8"/>
			</defs>
			<clipPath id="SVGID_16_">
				<use xlink:href="#SVGID_15_"  style="overflow:visible;"/>
			</clipPath>
			<rect y="5" class="st12" width="23.4" height="3"/>
		</g>
		<rect y="8.1" class="st1" width="23.4" height="2.7"/>
		<g class="st2">
			<defs>
				<rect id="SVGID_17_" y="0" width="85.9" height="30.8"/>
			</defs>
			<clipPath id="SVGID_18_">
				<use xlink:href="#SVGID_17_"  style="overflow:visible;"/>
			</clipPath>
			<rect y="8.1" class="st13" width="23.4" height="2.7"/>
		</g>
		<rect y="10.7" class="st1" width="23.4" height="3"/>
		<g class="st2">
			<defs>
				<rect id="SVGID_19_" y="0" width="85.9" height="30.8"/>
			</defs>
			<clipPath id="SVGID_20_">
				<use xlink:href="#SVGID_19_"  style="overflow:visible;"/>
			</clipPath>
			<rect y="10.7" class="st14" width="23.4" height="3"/>
		</g>
		<rect y="13.5" class="st1" width="23.4" height="2.8"/>
		<g class="st2">
			<defs>
				<rect id="SVGID_21_" y="0" width="85.9" height="30.8"/>
			</defs>
			<clipPath id="SVGID_22_">
				<use xlink:href="#SVGID_21_"  style="overflow:visible;"/>
			</clipPath>
			<rect y="13.5" class="st15" width="23.4" height="2.8"/>
		</g>
		<rect y="16.3" class="st1" width="23.4" height="3.1"/>
		<g class="st2">
			<defs>
				<rect id="SVGID_23_" y="0" width="85.9" height="30.8"/>
			</defs>
			<clipPath id="SVGID_24_">
				<use xlink:href="#SVGID_23_"  style="overflow:visible;"/>
			</clipPath>
			<rect y="16.3" class="st16" width="23.4" height="3.1"/>
		</g>
		<rect y="19.4" class="st1" width="23.4" height="2.5"/>
		<g class="st2">
			<defs>
				<rect id="SVGID_25_" y="0" width="85.9" height="30.8"/>
			</defs>
			<clipPath id="SVGID_26_">
				<use xlink:href="#SVGID_25_"  style="overflow:visible;"/>
			</clipPath>
			<rect y="19.4" class="st17" width="23.4" height="2.5"/>
		</g>
		<g class="st2">
			<text transform="matrix(1 0 0 1 6.1624 18.219)" class="st5 st6">C</text>
		</g>
		<g class="st2">
			<defs>
				<rect id="SVGID_27_" y="0" width="85.9" height="30.8"/>
			</defs>
			<clipPath id="SVGID_28_">
				<use xlink:href="#SVGID_27_"  style="overflow:visible;"/>
			</clipPath>
			<path class="st18" d="M16.3,7.4L16,8.1c-1-0.7-2.1-1-3.4-1c-1.7,0-3.1,0.6-4.3,1.7C7.3,9.9,6.7,11.3,6.7,13
				c0,1.8,0.6,3.2,1.8,4.3c1,0.9,2.4,1.4,3.9,1.4c1.5,0,2.8-0.5,3.8-1.4c0.5-0.4,0.9-1,1.2-1.6L16.7,15c-0.3,0.6-0.7,1.1-1.2,1.5
				c-0.8,0.7-1.7,1-2.8,1c-0.6,0-1.1-0.1-1.6-0.4c-0.6-0.3-1.1-0.9-1.4-1.6c-0.3-0.8-0.5-1.7-0.5-2.7c0-1.4,0.3-2.5,0.8-3.3
				c0.7-1,1.5-1.5,2.7-1.5c0.6,0,1.1,0.1,1.6,0.4c0.5,0.3,0.9,0.6,1.2,1.1c0.4,0.5,0.6,1.1,0.8,1.8h0.8l0-0.2
				C17,9.6,17,8.3,16.9,7.4H16.3z"/>
		</g>
		<g class="st2">
			<defs>
				<rect id="SVGID_29_" y="0" width="85.9" height="30.8"/>
			</defs>
			<clipPath id="SVGID_30_">
				<use xlink:href="#SVGID_29_"  style="overflow:visible;"/>
			</clipPath>
			<g class="st19">
				<g>
					<defs>
						<rect id="SVGID_31_" x="-1" y="-1.2" width="87.4" height="34.1"/>
					</defs>
					<clipPath id="SVGID_32_">
						<use xlink:href="#SVGID_31_"  style="overflow:visible;"/>
					</clipPath>
				</g>
			</g>
		</g>
	</g>
</g>
</svg>
