<?xml version="1.0" encoding="utf-8"?>
<!-- Generator: Adobe Illustrator 25.0.0, SVG Export Plug-In . SVG Version: 6.00 Build 0)  -->
<svg version="1.1" id="Layer_1" xmlns="http://www.w3.org/2000/svg" xmlns:xlink="http://www.w3.org/1999/xlink" x="0px" y="0px"
	 viewBox="0 0 458.1 630.2" style="enable-background:new 0 0 458.1 630.2;" xml:space="preserve">
<style type="text/css">
	.st0{stroke:#000000;stroke-width:0.25;stroke-miterlimit:10;}
	.st1{display:none;fill:none;stroke:#000000;stroke-width:0.25;stroke-miterlimit:10;}
	.st2{fill:#A8A8A8;}
	.st3{fill:#FFFFFF;}
	.st4{fill:none;stroke:#000000;stroke-width:0.5;stroke-linecap:round;stroke-linejoin:round;}
	.st5{fill:#D2232A;}
	.st6{display:none;}
	.st7{display:inline;fill:#FFFFFF;}
</style>
<g id="Layer_1_1_">
	<path class="st0" d="M228.7,515.3"/>
	<path class="st1" d="M229.2,515.3c-0.2,0-0.4,0-0.6,0"/>
	<path class="st0" d="M243,601"/>
	<path class="st2" d="M2,2v350h0.3v0.8c7.7,1.6,13,3.8,16,6.5s4.5,6.6,4.5,11.6v224.2c0,5.1-1.5,9-4.6,11.7
		c-3.1,2.8-8.4,4.9-15.8,6.4v7h118.4v-7c-7.7-1.8-13-4-16-6.7s-4.5-6.6-4.5-11.6V439.8l115,161.1H243l115-161.1V595
		c0,5-1.5,8.9-4.5,11.6c-3,2.7-8.3,4.9-16,6.7v7h118.4v-7c-7.5-1.5-12.7-3.6-15.8-6.4c-3.1-2.8-4.6-6.7-4.6-11.7V371.1
		c0-5,1.5-8.9,4.5-11.6s8.3-4.8,16-6.5v-0.8h0.3V2H2z M318.7,386.4l-88.3,123.8l-88.3-123.8c-7.2-9.7-10.8-17.8-10.8-24.5
		c0-6.8,4.9-11.4,14.8-13.9h168.5c9.9,2.5,14.8,7.1,14.9,13.9C329.5,368.6,325.9,376.8,318.7,386.4z M443.1,337.4H15V17.9h428.1
		V337.4z M411.3,39.8c8.7,5.6,15.2,12.5,19.7,20.7V29.2h-46.4c0.1,0,0.3,0.1,0.4,0.1h-0.4C394.7,31.5,403.6,35,411.3,39.8z
		 M418.7,133.6c-11.7,11-25.9,17.9-42.8,20.8l0.1,0.1c0,0,0,0-0.1,0l55.1,85.4V117.5c-0.2,0.4-0.4,0.7-0.6,1.1
		C427.4,124,423.5,128.9,418.7,133.6z M403.2,93.1c0-0.8,0-1.5,0-2.3c0-1.2,0-2.3-0.1-3.4c-1.4-23.1-17.1-34.8-47.5-34.8H239.2v75.6
		h114.3C385.7,128.2,402.2,116.5,403.2,93.1z M431,324.9v-70.2h-26l-65.1-99.9H239.3v0.1h-0.1v104.8c0,31.6-11.1,53.3-33.1,65.2H431
		z M57.5,269.6c0,25.4,21.5,39.3,64.7,41.6c4.5,0.2,9.1,0.4,14,0.4c8.7,0,16.4-0.4,23.2-1.2c13.1-1.5,22.7-4.4,28.9-8.7
		c8.8-6,14.5-16.2,17-30.7c1-5.7,1.5-12,1.5-18.9V29.3H27.4v204.8h30.1V269.6z M56.3,324.1c-1-0.5-2-1.1-2.9-1.7c0,0,0,0,0,0
		c-6.2-3.8-11.3-8.3-15.5-13.4c-0.6-0.8-1.2-1.6-1.8-2.4c-0.7-1-1.4-2-2-3c-0.4-0.7-0.9-1.4-1.3-2.2c-0.7-1.3-1.4-2.7-2-4.1
		c-0.4-0.9-0.8-1.9-1.2-2.9c-0.4-1-0.7-1.9-1-2.9c-0.5-1.5-0.9-3-1.2-4.6v38h30.4C57.3,324.6,56.8,324.3,56.3,324.1z"/>
	<path class="st3" d="M56.3,324.1c0.5,0.3,1,0.5,1.5,0.8H27.4v-38c0.4,1.6,0.8,3.1,1.2,4.6c0.3,1,0.6,2,1,2.9c0.4,1,0.7,1.9,1.2,2.9
		c0.6,1.4,1.3,2.8,2,4.1c0.4,0.7,0.8,1.5,1.3,2.2c0.6,1,1.3,2,2,3c0.6,0.8,1.2,1.6,1.8,2.4c4.1,5.1,9.3,9.6,15.5,13.4c0,0,0,0,0,0
		C54.3,323,55.3,323.5,56.3,324.1z"/>
	<path class="st3" d="M206.8,252.1c0,7-0.5,13.2-1.5,18.9c-2.5,14.5-8.2,24.7-17,30.7c-6.2,4.3-15.8,7.2-28.9,8.7
		c-6.8,0.8-14.5,1.2-23.2,1.2c-4.9,0-9.6-0.1-14-0.4C79,308.9,57.5,295,57.5,269.6v-35.5H27.4V29.3h179.4V252.1z"/>
	<path class="st3" d="M353.5,128.2H239.2V52.6h116.4c30.4,0,46.1,11.7,47.5,34.8c0.1,1.1,0.1,2.2,0.1,3.4c0,0.8,0,1.5,0,2.3
		C402.2,116.5,385.7,128.2,353.5,128.2z"/>
	<path class="st3" d="M430.4,118.6c0.2-0.4,0.4-0.7,0.6-1.1v122.4l-55.1-85.4c0,0,0,0,0.1,0l-0.1-0.1c16.9-2.9,31.1-9.8,42.8-20.8
		C423.5,128.9,427.4,124,430.4,118.6z"/>
	<path class="st3" d="M431,29.2v31.3c-4.5-8.2-11-15.1-19.7-20.7c-7.7-4.8-16.6-8.3-26.7-10.5h0.4c-0.1,0-0.3-0.1-0.4-0.1H431z"/>
	<path class="st3" d="M405,254.7h26v70.2H206.1c22-11.9,33.1-33.6,33.1-65.2V154.9h0.1v-0.1h100.6L405,254.7z"/>
	<g id="XMLID_4_">
		<g>
			<path class="st2" d="M431,254.7v70.2H206.2c22-11.9,33.1-33.7,33.1-65.2V154.8h100.6l65.1,99.9H431z"/>
			<path class="st2" d="M431,117.5v122.4l-55-85.4l-0.1-0.1c16.9-2.9,31.1-9.8,42.8-20.8c4.8-4.7,8.7-9.6,11.7-15
				C430.6,118.2,430.8,117.9,431,117.5z"/>
			<path class="st2" d="M431,29.2v31.2c-4.4-8.2-11-15.1-19.7-20.7C403.7,35,395,31.6,385,29.3c-0.1,0-0.3-0.1-0.4-0.1H431z"/>
			<path class="st2" d="M403.2,90.8c0,0.8,0,1.5,0,2.3c-1,23.4-17.4,35.1-49.7,35.1H239.2V52.7h116.4c30.3,0,46.1,11.5,47.5,34.7
				C403.2,88.5,403.2,89.6,403.2,90.8z"/>
			<path class="st2" d="M206.8,29.3v222.8c0,7-0.5,13.2-1.5,18.9c-2.5,14.4-8.2,24.6-17.1,30.7c-6.2,4.3-15.7,7.2-28.8,8.7
				c-6.8,0.8-14.5,1.2-23.2,1.2c-4.9,0-9.6-0.1-14-0.4C79,308.9,57.5,295,57.5,269.6v-35.5H27.4V29.3H206.8z"/>
			<path class="st2" d="M57.8,324.9H27.4v-38c0.4,1.6,0.8,3.1,1.2,4.6c0.3,1,0.6,2,1,2.9c0.4,1,0.7,1.9,1.2,2.9
				c0.6,1.4,1.3,2.8,2,4.1c0.4,0.7,0.8,1.5,1.3,2.2c0.6,1,1.3,2,2,3c0.6,0.8,1.2,1.6,1.8,2.4c4.1,5.1,9.2,9.6,15.5,13.4c0,0,0,0,0,0
				c1,0.6,1.9,1.2,2.9,1.7C56.8,324.3,57.3,324.6,57.8,324.9z"/>
		</g>
		<g>
			<path class="st4" d="M206.8,29.3v222.8c0,7-0.5,13.2-1.5,18.9c-2.5,14.5-8.2,24.7-17,30.7c-6.2,4.3-15.8,7.2-28.9,8.7
				c-6.8,0.8-14.5,1.2-23.2,1.2c-4.9,0-9.6-0.1-14-0.4c-43-2.4-64.6-16.2-64.6-41.6v-35.5H27.4V29.3H206.8z"/>
			<path class="st4" d="M431,254.8v70.1H206.1c22-11.9,33.1-33.6,33.1-65.2V154.9h100.7l65.1,99.9H431z"/>
			<path class="st4" d="M431,117.5v122.4l-55.1-85.4c0,0,0,0,0.1,0c16.9-2.9,31.1-9.8,42.7-20.8c4.9-4.8,8.7-9.7,11.7-15.1
				C430.6,118.2,430.8,117.9,431,117.5z"/>
			<path class="st4" d="M431,29.3v31.2c-4.5-8.2-11-15.1-19.7-20.7c-7.7-4.8-16.6-8.3-26.7-10.5H431z"/>
			<path class="st4" d="M403.2,90.8c0,0.8,0,1.5,0,2.3c-1,23.4-17.5,35.1-49.7,35H239.2V52.6h116.4c30.4,0,46.1,11.7,47.5,34.8
				C403.2,88.5,403.2,89.6,403.2,90.8z"/>
			<path class="st4" d="M57.8,324.9H27.4v-38c0.4,1.6,0.8,3.1,1.2,4.6c0.3,1,0.6,2,1,2.9c0.4,1,0.7,1.9,1.2,2.9
				c0.6,1.4,1.3,2.8,2,4.1c0.4,0.7,0.8,1.5,1.3,2.2c0.6,1,1.3,2,2,3c0.6,0.8,1.2,1.6,1.8,2.4c4.1,5.1,9.3,9.6,15.5,13.4c0,0,0,0,0,0
				c1,0.6,1.9,1.2,2.9,1.7C56.8,324.3,57.3,324.6,57.8,324.9z"/>
		</g>
	</g>
	<g id="XMLID_2_">
	</g>
	<path class="st5" d="M230.3,513.4L230.3,513.4z"/>
</g>
<g id="Diamond" class="st6">
	<path class="st7" d="M314.6,348H146.1c-9.9,2.5-14.8,7.1-14.8,13.9c0,6.7,3.6,14.8,10.8,24.5l88.3,123.8l88.3-123.8
		c7.2-9.6,10.8-17.8,10.8-24.5C329.4,355.1,324.5,350.5,314.6,348z"/>
</g>
</svg>
