<?xml version="1.0" encoding="utf-8"?>
<!-- Generator: Adobe Illustrator 25.0.0, SVG Export Plug-In . SVG Version: 6.00 Build 0)  -->
<svg version="1.1" id="Layer_1" xmlns="http://www.w3.org/2000/svg" xmlns:xlink="http://www.w3.org/1999/xlink" x="0px" y="0px"
	 viewBox="0 0 122.4 122.4" style="enable-background:new 0 0 122.4 122.4;" xml:space="preserve">
<style type="text/css">
	.st0{fill:#2D527C;}
</style>
<g>
	<path class="st0" d="M64.2,2.7c8.5,3.7,12.4,8.7,12,15.7c-0.4,7.2-5.9,13.2-12.7,14c-7.6,0.8-14.3-3.4-16.3-10.2
		C45,15,48.3,7.4,55.1,4.2c1.1-0.5,2.3-1,3.4-1.5C60.4,2.7,62.3,2.7,64.2,2.7z"/>
	<path class="st0" d="M72.7,118c0.4,0.3,0.7,0.7,1.1,1c-8.3,0-16.5,0-24.8,0c0.4-0.3,0.7-0.7,1.1-1c1.1-0.6,1.8-1.6,2.7-2.6
		c5.6-5.8,12.4-5.5,17.8,0.7C71.1,116.9,71.8,117.5,72.7,118z"/>
	<path class="st0" d="M61.2,73.4c-8.2,0-16.5-0.1-24.7,0.1c-2.9,0.1-4-0.8-3.8-3.8c0.4-4.9-0.4-9.8,0.8-14.7
		c1.5-6.3,4.8-11.3,9.5-15.6c2.6-2.3,4.9-3,8.4-1.2c6.7,3.5,13.8,3.4,20.5-0.2c3.1-1.6,5.2-1.1,7.6,1c7.7,6.5,10.9,14.8,10.7,24.8
		c-0.2,9.5,0,9.5-9.4,9.5C74.2,73.4,67.7,73.4,61.2,73.4z"/>
	<path class="st0" d="M72.7,118c-7.5-4.9-15.1-4.7-22.6,0c0.1-0.5,0.3-0.9,0.4-1.4c2.3-6.9,1.7-12.9-5.1-17.2
		c-0.6-0.4-1-1.1-2.3-2.7c9.9,1,15.7-3.1,18.3-12.5c2.5,9.5,8.4,13.5,18,13.1C70.8,102.7,69.5,109.7,72.7,118z"/>
	<path class="st0" d="M37.8,86c-2.2,2.4-5.5,4.5-6.4,7.3c-0.9,2.8,0.6,6.4,1.1,10.8c-6.2-5-12.3-6.1-19,0.6c0.6-4.8,2-8.4,1-11.3
		c-0.9-2.8-4.2-4.9-6.7-7.7c3.6-0.7,7.5-0.5,9.8-2.3c2.4-1.8,3.4-5.5,5-8.4C22.7,74.9,37.6,85.8,37.8,86z"/>
	<path class="st0" d="M90,103.8c3-7.6,1.4-13.5-5.6-18.3c8.4,0.6,12.8-3.6,15.2-11.1c2.6,7.2,6.3,12.1,15.3,10.8
		c-6.6,5.1-8.9,10.7-5.7,18.5C102.5,98.2,96.4,98.6,90,103.8z"/>
</g>
</svg>
