<?xml version="1.0" encoding="utf-8"?>
<!-- Generator: Adobe Illustrator 25.0.0, SVG Export Plug-In . SVG Version: 6.00 Build 0)  -->
<svg version="1.1" id="Layer_1" xmlns="http://www.w3.org/2000/svg" xmlns:xlink="http://www.w3.org/1999/xlink" x="0px" y="0px"
	 viewBox="0 0 122.4 122.4" style="enable-background:new 0 0 122.4 122.4;" xml:space="preserve">
<style type="text/css">
	.st0{fill:#2D527C;}
	.st1{fill:#FFFFFF;}
</style>
<g>
	<path class="st0" d="M63.2,92.8c0-11.5-0.2-22.5,0.1-33.5c0.2-6.2,3.3-11,10-11.8c6.6-0.8,10.7,2.4,12.6,8.8
		c0.5,1.8,1.8,3.3,3.1,5.6c7.4-17.2,10.9-18,25.9-6.8c2.1-13.4-9.3-33.4-24.9-43.3C71.9,0.1,47.9,0.4,30.3,13
		C16,23.2,7.4,36.9,5.7,56.4c16.3-15.7,21.2-8.4,27.6,6.2c1.4-3.5,1.6-6.2,3-7.4c3.5-3,7.8-7.6,11.4-7.3c3.7,0.3,9.8,5.5,10,8.8
		c1.1,17.6,0.8,35.3,0.7,52.9c0,1.5-1.8,4.2-2.8,4.2c-1.7,0-3.6-1.5-5.1-2.7c-1-0.8-1.7-2.2-3.2-4.3c-2.8,7.6,0.3,11.8,5.7,11.9
		c14.9,0.4,8-12.5,11.8-21.6"/>
	<path class="st0" d="M64.8,97.2c-3.8,9.1,3.1,22-11.8,21.6c-5.4-0.1-8.5-4.4-5.7-11.9c1.6,2.1,2.2,3.5,3.2,4.3
		c1.5,1.2,3.4,2.7,5.1,2.7c1,0,2.8-2.7,2.8-4.2c0.1-17.6,0.5-35.3-0.7-52.9c-0.2-3.4-6.3-8.5-10-8.8c-3.6-0.3-7.9,4.3-11.4,7.3
		c-1.4,1.2-1.6,3.8-3,7.4c-6.4-14.6-11.3-22-27.6-6.2C7.4,36.9,16,23.2,30.3,13C47.9,0.4,71.9,0.1,90,11.7
		c15.5,9.9,27,29.9,24.9,43.3c-15-11.2-18.4-10.5-25.9,6.8c-1.3-2.3-2.6-3.8-3.1-5.6c-1.9-6.4-6.1-9.6-12.6-8.8
		c-6.7,0.8-9.8,5.6-10,11.8c-0.3,11-0.1,21.9-0.1,33.5 M59.4,8.8c-13.5,5-22.4,20.5-22.2,36.2c11.1-4.2,12.6-4,23.4,3.2
		c4.3-2,8-4.8,12.1-5.5c3.9-0.6,8.2,1.1,12.3,1.7C83.5,26.1,74.8,11.8,62.4,9.7c0,9.6,0,19,0,28.4c-1,0-2,0.1-3,0.1
		C59.4,28.6,59.4,19,59.4,8.8z M29.9,45c4.1-10.8,8.3-21.7,12.8-33.4c-14.3,6.1-23.4,16.2-29,29.8C19.7,42.7,25,43.9,29.9,45z
		 M91.9,44.9c5.3-1.1,10.4-2.2,15.5-3.3C103.1,27,90.1,14,80,13.3C83.9,23.6,87.9,34.3,91.9,44.9z"/>
	<path class="st1" d="M59.4,8.8c0,10.2,0,19.8,0,29.4c1,0,2-0.1,3-0.1c0-9.4,0-18.8,0-28.4C74.8,11.8,83.5,26.1,85,44.5
		c-4.1-0.7-8.4-2.3-12.3-1.7c-4.1,0.6-7.8,3.4-12.1,5.5c-10.9-7.2-12.3-7.4-23.4-3.2C37,29.3,45.9,13.8,59.4,8.8z"/>
	<path class="st1" d="M29.9,45c-4.9-1.1-10.2-2.3-16.2-3.7c5.6-13.6,14.7-23.7,29-29.8C38.2,23.4,34,34.2,29.9,45z"/>
	<path class="st1" d="M91.9,44.9c-4-10.6-8-21.3-11.9-31.6C90.1,14,103.1,27,107.4,41.6C102.3,42.7,97.2,43.8,91.9,44.9z"/>
</g>
</svg>
