<?xml version="1.0" encoding="utf-8"?>
<!-- Generator: Adobe Illustrator 25.0.0, SVG Export Plug-In . SVG Version: 6.00 Build 0)  -->
<svg version="1.1" id="Layer_1" xmlns="http://www.w3.org/2000/svg" xmlns:xlink="http://www.w3.org/1999/xlink" x="0px" y="0px"
	 viewBox="0 0 122.4 122.4" style="enable-background:new 0 0 122.4 122.4;" xml:space="preserve">
<style type="text/css">
	.st0{fill:#2D527C;}
	.st1{fill:#FFFFFF;}
</style>
<g>
	<path class="st0" d="M117.6,99.2c-2.4,3.7-5.8,4.7-10.1,4.5c-6.5-0.3-13.1-0.2-19.6,0c-2.6,0.1-3.7-0.9-4.1-3.3
		c-0.8-4.1-1.9-8-4.3-11.7c-1.6-2.6,0-6.3,2.6-8.5c3.5-3,10.1-1.1,12,3.1c0.9,2.1,0.9,5.7,3.1,5.7c2.6,0,2.8-3.7,3.4-5.9
		c1.1-4.3,3.9-4.2,7.2-4.2c3.5,0.1,5.7,1.5,6.8,4.9c1,3.1,0.7,6.6,3,9.3C117.6,95.1,117.6,97.2,117.6,99.2z"/>
	<path class="st0" d="M4.1,93.1c2.4-2,1.9-5,2.6-7.5c1.6-5.9,6.2-8.5,11.9-6.5c1.9,0.6,1.6,2.5,2.4,3.8c1.2,2.1,1,6,3.3,6.1
		c2.6,0.1,2.8-3.7,3.3-5.8c1.2-5.3,5-4.2,8.5-4.1c3.7,0.1,5.2,2.6,5.9,5.9c0.2,0.8,0.6,1.8-0.4,2.3c-5.3,2.8-5.5,8.2-6.6,13.1
		c-0.6,2.7-1.8,3.5-4.4,3.4c-5.8-0.2-11.6-0.3-17.4,0c-4.1,0.2-7-1.3-9.2-4.5C4.1,97.2,4.1,95.1,4.1,93.1z"/>
	<path class="st0" d="M59.3,117.5c-4.6,0-9.3,0.1-13.9,0c-6.6-0.1-9.8-4.3-8.2-10.6c1-3.9,1.9-7.9,2.8-11.8c1-3.8,3.6-5.3,7.4-5.4
		c3.7-0.1,7.2-0.5,8.4,4.5c0.6,2.5,1.1,6.8,3.6,6.8c2.8,0,3.4-4.3,4-6.9c1.1-4.9,4.5-4.4,8-4.4c3.8,0,6.5,1.5,7.6,5.2
		c1.2,4.3,2.3,8.7,3.1,13.1c1,5.4-2.3,9.3-7.9,9.5C69.2,117.6,64.2,117.5,59.3,117.5z"/>
	<path class="st0" d="M47.1,34.3c0-2.2-1.6-2.4-3-2.6c-2.7-0.5-3.3-2-3.3-4.6c0-2.6,1-3.6,3.4-4c3.2-0.5,3.4-2.4,1.7-4.6
		c-1.9-2.4-0.5-3.7,1.1-5.5c1.8-2,3.2-1.9,5.1-0.4c2.5,1.9,4,1.1,4.5-1.9c0.4-2.3,1.3-3.5,4-3.3c2.5,0.1,4.1,0.4,4.5,3.3
		c0.4,3,2.1,3.7,4.5,1.8c2.1-1.6,3.6-1.4,5.5,0.6c1.9,1.9,2.3,3.3,0.7,5.5c-2,2.7-0.6,4,2.1,4.4c2.3,0.4,3.1,1.4,3.1,3.8
		c0,2.4-0.3,4.2-3.2,4.7c-3.3,0.5-3.8,2.4-1.8,4.8c1.9,2.3,0.4,3.5-1,5.1c-1.6,1.7-3,2.5-5.1,0.8c-2.7-2.1-4.2-0.9-4.7,2.1
		c-0.4,2.4-1.9,2.8-4,2.8c-2.2,0-4-0.2-4.4-2.9c-0.4-2.5-1.7-3.9-4.2-2.1c-2.4,1.8-3.9,1.1-5.9-0.8c-2.3-2-1.6-3.7-0.3-5.6
		C46.7,35.3,46.9,34.7,47.1,34.3z"/>
	<path class="st0" d="M73.3,66.6c-1,5.6-0.6,11.6-4,16.7c-5.6,8.3-14.4,8.5-19.8,0.1c-3.5-5.5-4.6-11.9-5.3-18.2
		c-0.6-5.1,3-9.4,8.5-11.4c5.4-1.9,10.6-2.9,15.4,1.8C71.2,58.7,73.7,61.9,73.3,66.6z"/>
	<path class="st0" d="M24.7,45.6c5.7-0.1,11.8,5.1,12.2,10.8c0.3,4.9-0.4,9.9-2.4,14.5c-2.1,4.9-6.7,8.2-10.6,7.9
		c-4.2-0.3-8.8-4.5-10.3-9.6c-1-3.2-1.8-6.4-2.6-9.6C9.3,52,15.4,45.7,24.7,45.6z"/>
	<path class="st0" d="M87.2,70.4c-1.2-3.9-2.7-7.7-3.6-11.6c-1-4.2,1.4-8.7,5.4-11c4.7-2.8,11.5-2.9,14.9-0.2
		c8.1,6.5,7,23.9-1.9,29.5c-2.2,1.4-4.5,1.9-7.1,1c-0.3-2.3,1.2-3.1,2.9-3.8c1.9-0.8,3.5-2,4.6-3.8c2.9-4.4,1.6-7.3-3.5-7.8
		c-0.9-0.1-1.7-0.3-2.6-0.4c-3.9-0.6-5.3,0.3-6.2,4c-0.3,1.2-0.3,2.6-1.3,3.6C88.4,70.4,87.8,70.6,87.2,70.4z"/>
	<path class="st0" d="M85.4,16.4c2.4,1.9,3.9,1.6,4.9-1.9c0.5-1.8,4.3-1.2,5,0.9c0.7,2,1.4,3.2,3.6,1.7c1.1-0.8,2.1-0.6,3,0.5
		c1,1.2,1.8,2.3,0.7,3.8c-1.3,1.8-0.8,3,1.3,3.4c1.9,0.3,2.3,1.3,2.3,3c0,1.5-0.4,2.4-2.1,2.7c-2.2,0.3-2.6,1.6-1.4,3.4
		c0.9,1.3,0.8,2.3-0.4,3.4c-1.1,1-2.1,1.5-3.4,0.6c-1.7-1.1-3-1.2-3.5,1.2c-0.3,1.6-1.4,2-2.9,1.9c-1.4,0-2.6-0.1-2.9-1.9
		c-0.3-2.3-1.6-2.6-3.3-1.4c-1.6,1.1-2.6,0.3-3.7-0.8c-1.3-1.2-0.7-2.2-0.1-3.4c2.1-4,2-8,0-12C81.5,19.1,83,16.3,85.4,16.4z"/>
	<path class="st0" d="M28.3,41c-1.5-3.4-5.1-3-8.5-3.9c-3.5-0.8,0.6-4-0.4-5.8c-0.9-1.6-5.5-1-3.6-3.9c2-3.1,2.2-7.4,4.1-9.2
		c2.2-2,6.5-3.7,9.5-4c2.4-0.2,5.7,3.1,9.3,3.7c1.4,0.2,1.6,2,0.7,3.6c-2.3,4-2.2,8.3,0.1,12.3c0.7,1.2,0.8,2.1-0.2,3.1
		c-1,0.9-1.9,2-3.3,1.1c-2.1-1.4-3.4-1.3-3.9,1.5C31.6,41.1,30.2,40.9,28.3,41z"/>
	<path class="st0" d="M99.3,76.6c-1.4,0.5-2.9,1-4.3,1.5c-4.1-1.1-6.4-4-7.8-7.7c0.3-0.4,0.6-0.8,0.9-1.2c0.3-0.1,0.6-0.3,0.8-0.1
		C92.2,71.8,96.2,73.6,99.3,76.6z"/>
	<path class="st1" d="M69.4,27.7c-0.1,4.4-4.1,8.3-8.5,8.3c-4.5,0-8.6-4.2-8.5-8.7c0.1-4.5,4-8.2,8.5-8.2
		C65.4,19,69.5,23.1,69.4,27.7z"/>
	<path class="st1" d="M70.4,74.4c-0.7,4.8-2.6,9.1-7.1,11.8c-4.3,2.6-9,0.8-12.4-4.6c-2.8-4.4-2.2-10.1,1.3-12.6
		c0.6-0.4,1.3-0.9,1.9-0.9c4.5,0.2,8.7,1.9,13.5,0.9C69.8,68.6,70,72.1,70.4,74.4z"/>
	<path class="st1" d="M34.2,65.1c-0.4,4.4-2.2,7.8-5.6,10.2c-3.7,2.7-7.7,1.7-10.9-2.6c-3.2-4.2-3-9.6,0.4-12.2c0.8-0.6,2-1.2,2.8-1
		c3.5,0.8,6.7,1.4,10.5,0.7C33.9,59.8,33.9,63.2,34.2,65.1z"/>
	<path class="st1" d="M99.3,76.6c-6,1-8.6-3.1-11.2-7.4c-0.1-1.3-0.2-2.6-0.1-3.9c0.1-2.3,1-4.7,3.1-5.3c4.6-1.2,9.3,1,14.1,0.8
		c1.2-0.1,1.3,2.1,1.4,3.4C106.8,69.9,103.9,73.7,99.3,76.6z"/>
	<path class="st1" d="M92.8,33.1c-3.3,0.1-5.8-2.4-5.8-5.6c0-3.5,2-5.4,5.2-5.8c3.1-0.4,6.2,2.7,6.2,5.9
		C98.4,30.6,95.9,33.1,92.8,33.1z"/>
	<path class="st1" d="M34.8,27.9c-0.1,2.8-1.8,4.9-5.2,5.2c-3.3,0.3-6.4-2.5-6.2-5.8c0.2-3.4,2.2-5.3,5.5-5.6
		C31.9,21.4,34.7,24.2,34.8,27.9z"/>
</g>
</svg>
